<svg width="180" height="80" viewBox="0 0 180 80" xmlns="http://www.w3.org/2000/svg">
  <!-- Five dots above FIS -->
  <circle cx="30" cy="15" r="4" fill="#4CBB17"/>
  <circle cx="45" cy="15" r="4" fill="#4CBB17"/>
  <circle cx="60" cy="15" r="4" fill="#4CBB17"/>
  <circle cx="75" cy="15" r="4" fill="#4CBB17"/>
  <circle cx="90" cy="15" r="4" fill="#4CBB17"/>
  
  <!-- F -->
  <path d="M20 30 L20 65 L25 65 L25 50 L50 50 L50 45 L25 45 L25 35 L55 35 L55 30 Z" fill="#4CBB17"/>
  
  <!-- I -->
  <rect x="70" y="30" width="5" height="35" fill="#4CBB17"/>
  
  <!-- S -->
  <path d="M90 30 L90 35 L115 35 L115 42.5 L100 42.5 L100 47.5 L115 47.5 L115 60 L90 60 L90 65 L120 65 L120 52.5 L105 52.5 L105 47.5 L120 47.5 L120 30 Z" fill="#4CBB17"/>
</svg>